<?xml version="1.0" encoding="UTF-8"?>
<!--Generator: Apple Native CoreSVG 341-->
<!DOCTYPE svg
PUBLIC "-//W3C//DTD SVG 1.1//EN"
       "http://www.w3.org/Graphics/SVG/1.1/DTD/svg11.dtd">
<svg version="1.1" xmlns="http://www.w3.org/2000/svg" xmlns:xlink="http://www.w3.org/1999/xlink" viewBox="0 0 3300 2200">
 <g id="Notes">
  <rect height="2200" id="artboard" style="fill:white;opacity:1" width="3300" x="0" y="0"/>
  <line style="fill:none;stroke:black;opacity:1;stroke-width:0.5;" x1="263" x2="3036" y1="292" y2="292"/>
  <text style="stroke:none;fill:black;font-family:sans-serif;font-size:13;font-weight:bold;" transform="matrix(1 0 0 1 263 322)">Weight/Scale Variations</text>
  <text style="stroke:none;fill:black;font-family:sans-serif;font-size:13;text-anchor:middle;" transform="matrix(1 0 0 1 559.711 322)">Ultralight</text>
  <text style="stroke:none;fill:black;font-family:sans-serif;font-size:13;text-anchor:middle;" transform="matrix(1 0 0 1 856.422 322)">Thin</text>
  <text style="stroke:none;fill:black;font-family:sans-serif;font-size:13;text-anchor:middle;" transform="matrix(1 0 0 1 1153.13 322)">Light</text>
  <text style="stroke:none;fill:black;font-family:sans-serif;font-size:13;text-anchor:middle;" transform="matrix(1 0 0 1 1449.84 322)">Regular</text>
  <text style="stroke:none;fill:black;font-family:sans-serif;font-size:13;text-anchor:middle;" transform="matrix(1 0 0 1 1746.56 322)">Medium</text>
  <text style="stroke:none;fill:black;font-family:sans-serif;font-size:13;text-anchor:middle;" transform="matrix(1 0 0 1 2043.27 322)">Semibold</text>
  <text style="stroke:none;fill:black;font-family:sans-serif;font-size:13;text-anchor:middle;" transform="matrix(1 0 0 1 2339.98 322)">Bold</text>
  <text style="stroke:none;fill:black;font-family:sans-serif;font-size:13;text-anchor:middle;" transform="matrix(1 0 0 1 2636.69 322)">Heavy</text>
  <text style="stroke:none;fill:black;font-family:sans-serif;font-size:13;text-anchor:middle;" transform="matrix(1 0 0 1 2933.4 322)">Black</text>
  <line style="fill:none;stroke:black;opacity:1;stroke-width:0.5;" x1="263" x2="3036" y1="1903" y2="1903"/>
  <g transform="matrix(0.2 0 0 0.2 263 1933)">
   <path d="m46.2402 4.15039c21.7773 0 39.4531-17.627 39.4531-39.4043s-17.6758-39.4043-39.4531-39.4043c-21.7285 0-39.4043 17.627-39.4043 39.4043s17.6758 39.4043 39.4043 39.4043Zm0-7.42188c-17.6758 0-31.9336-14.3066-31.9336-31.9824s14.2578-31.9824 31.9336-31.9824 31.9824 14.3066 31.9824 31.9824-14.3066 31.9824-31.9824 31.9824Zm-17.9688-31.9824c0 2.14844 1.51367 3.61328 3.75977 3.61328h10.498v10.5957c0 2.19727 1.46484 3.71094 3.61328 3.71094 2.24609 0 3.71094-1.51367 3.71094-3.71094v-10.5957h10.5957c2.19727 0 3.71094-1.46484 3.71094-3.61328 0-2.19727-1.51367-3.71094-3.71094-3.71094h-10.5957v-10.5469c0-2.24609-1.46484-3.75977-3.71094-3.75977-2.14844 0-3.61328 1.51367-3.61328 3.75977v10.5469h-10.498c-2.24609 0-3.75977 1.51367-3.75977 3.71094Z"/>
  </g>
  <g transform="matrix(0.2 0 0 0.2 281.506 1933)">
   <path d="m58.5449 14.5508c27.4902 0 49.8047-22.3145 49.8047-49.8047s-22.3145-49.8047-49.8047-49.8047-49.8047 22.3145-49.8047 49.8047 22.3145 49.8047 49.8047 49.8047Zm0-8.30078c-22.9492 0-41.5039-18.5547-41.5039-41.5039s18.5547-41.5039 41.5039-41.5039 41.5039 18.5547 41.5039 41.5039-18.5547 41.5039-41.5039 41.5039Zm-22.6562-41.5039c0 2.39258 1.66016 4.00391 4.15039 4.00391h14.3555v14.4043c0 2.44141 1.66016 4.15039 4.05273 4.15039 2.44141 0 4.15039-1.66016 4.15039-4.15039v-14.4043h14.4043c2.44141 0 4.15039-1.61133 4.15039-4.00391 0-2.44141-1.70898-4.15039-4.15039-4.15039h-14.4043v-14.3555c0-2.49023-1.70898-4.19922-4.15039-4.19922-2.39258 0-4.05273 1.70898-4.05273 4.19922v14.3555h-14.3555c-2.49023 0-4.15039 1.70898-4.15039 4.15039Z"/>
  </g>
  <g transform="matrix(0.2 0 0 0.2 304.924 1933)">
   <path d="m74.8535 28.3203c35.1074 0 63.623-28.4668 63.623-63.5742s-28.5156-63.623-63.623-63.623-63.5742 28.5156-63.5742 63.623 28.4668 63.5742 63.5742 63.5742Zm0-9.08203c-30.127 0-54.4922-24.3652-54.4922-54.4922s24.3652-54.4922 54.4922-54.4922 54.4922 24.3652 54.4922 54.4922-24.3652 54.4922-54.4922 54.4922Zm-28.8574-54.4922c0 2.58789 1.85547 4.39453 4.58984 4.39453h19.7266v19.7754c0 2.68555 1.85547 4.58984 4.44336 4.58984 2.68555 0 4.54102-1.85547 4.54102-4.58984v-19.7754h19.7754c2.68555 0 4.58984-1.80664 4.58984-4.39453 0-2.73438-1.85547-4.58984-4.58984-4.58984h-19.7754v-19.7266c0-2.73438-1.85547-4.63867-4.54102-4.63867-2.58789 0-4.44336 1.9043-4.44336 4.63867v19.7266h-19.7266c-2.73438 0-4.58984 1.85547-4.58984 4.58984Z"/>
  </g>
  <text style="stroke:none;fill:black;font-family:sans-serif;font-size:13;font-weight:bold;" transform="matrix(1 0 0 1 263 1953)">Design Variations</text>
  <text style="stroke:none;fill:black;font-family:sans-serif;font-size:13;" transform="matrix(1 0 0 1 263 1971)">Symbols are supported in up to nine weights and three scales.</text>
  <text style="stroke:none;fill:black;font-family:sans-serif;font-size:13;" transform="matrix(1 0 0 1 263 1989)">For optimal layout with text and other symbols, vertically align</text>
  <text style="stroke:none;fill:black;font-family:sans-serif;font-size:13;" transform="matrix(1 0 0 1 263 2007)">symbols with the adjacent text.</text>
  <line style="fill:none;stroke:#00AEEF;stroke-width:0.5;opacity:1.0;" x1="776" x2="776" y1="1919" y2="1933"/>
  <g transform="matrix(0.2 0 0 0.2 776 1933)">
   <path d="m16.5527 0.78125c2.58789 0 3.85742-0.976562 4.78516-3.71094l6.29883-17.2363h28.8086l6.29883 17.2363c0.927734 2.73438 2.19727 3.71094 4.73633 3.71094 2.58789 0 4.24805-1.5625 4.24805-4.00391 0-0.830078-0.146484-1.61133-0.537109-2.63672l-22.9004-60.9863c-1.12305-2.97852-3.125-4.49219-6.25-4.49219-3.02734 0-5.07812 1.46484-6.15234 4.44336l-22.9004 61.084c-0.390625 1.02539-0.537109 1.80664-0.537109 2.63672 0 2.44141 1.5625 3.95508 4.10156 3.95508Zm13.4766-28.3691 11.8652-32.8613h0.244141l11.8652 32.8613Z"/>
  </g>
  <line style="fill:none;stroke:#00AEEF;stroke-width:0.5;opacity:1.0;" x1="792.836" x2="792.836" y1="1919" y2="1933"/>
  <text style="stroke:none;fill:black;font-family:sans-serif;font-size:13;font-weight:bold;" transform="matrix(1 0 0 1 776 1953)">Margins</text>
  <text style="stroke:none;fill:black;font-family:sans-serif;font-size:13;" transform="matrix(1 0 0 1 776 1971)">Leading and trailing margins on the left and right side of each symbol</text>
  <text style="stroke:none;fill:black;font-family:sans-serif;font-size:13;" transform="matrix(1 0 0 1 776 1989)">can be adjusted by modifying the x-location of the margin guidelines.</text>
  <text style="stroke:none;fill:black;font-family:sans-serif;font-size:13;" transform="matrix(1 0 0 1 776 2007)">Modifications are automatically applied proportionally to all</text>
  <text style="stroke:none;fill:black;font-family:sans-serif;font-size:13;" transform="matrix(1 0 0 1 776 2025)">scales and weights.</text>
  <g transform="matrix(0.2 0 0 0.2 1289 1933)">
   <path d="m14.209 9.32617 8.49609 8.54492c4.29688 4.3457 9.22852 4.05273 13.8672-1.07422l53.4668-58.9355-4.83398-4.88281-53.0762 58.3984c-1.75781 2.00195-3.41797 2.49023-5.76172 0.146484l-5.85938-5.81055c-2.34375-2.29492-1.80664-4.00391 0.195312-5.81055l57.373-54.0039-4.88281-4.83398-57.959 54.4434c-4.93164 4.58984-5.32227 9.47266-1.02539 13.8184Zm32.0801-90.9668c-2.09961 2.05078-2.24609 4.93164-1.07422 6.88477 1.17188 1.80664 3.4668 2.97852 6.68945 2.14844 7.32422-1.70898 14.9414-2.00195 22.0703 2.68555l-2.92969 7.27539c-1.70898 4.15039-0.830078 7.08008 1.85547 9.81445l11.4746 11.5723c2.44141 2.44141 4.49219 2.53906 7.32422 2.05078l5.32227-0.976562 3.32031 3.36914-0.195312 2.7832c-0.195312 2.49023 0.439453 4.39453 2.88086 6.78711l3.80859 3.71094c2.39258 2.39258 5.46875 2.53906 7.8125 0.195312l14.5508-14.5996c2.34375-2.34375 2.24609-5.32227-0.146484-7.71484l-3.85742-3.80859c-2.39258-2.39258-4.24805-3.17383-6.64062-2.97852l-2.88086 0.244141-3.22266-3.17383 1.2207-5.61523c0.634766-2.83203-0.146484-5.0293-3.07617-7.95898l-10.9863-10.9375c-16.6992-16.6016-38.8672-16.2109-53.3203-1.75781Zm7.4707 1.85547c12.1582-8.88672 28.6133-7.37305 39.7461 3.75977l12.1582 12.0605c1.17188 1.17188 1.36719 2.09961 1.02539 3.80859l-1.61133 7.42188 7.51953 7.42188 4.93164-0.292969c1.26953-0.0488281 1.66016 0.0488281 2.63672 1.02539l2.88086 2.88086-12.207 12.207-2.88086-2.88086c-0.976562-0.976562-1.12305-1.36719-1.07422-2.68555l0.341797-4.88281-7.4707-7.42188-7.61719 1.26953c-1.61133 0.341797-2.34375 0.195312-3.56445-0.976562l-10.0098-10.0098c-1.26953-1.17188-1.41602-2.00195-0.634766-3.85742l4.39453-10.4492c-7.8125-7.27539-17.9688-10.4004-28.125-7.42188-0.78125 0.195312-1.07422-0.439453-0.439453-0.976562Z"/>
  </g>
  <text style="stroke:none;fill:black;font-family:sans-serif;font-size:13;font-weight:bold;" transform="matrix(1 0 0 1 1289 1953)">Exporting</text>
  <text style="stroke:none;fill:black;font-family:sans-serif;font-size:13;" transform="matrix(1 0 0 1 1289 1971)">Symbols should be outlined when exporting to ensure the</text>
  <text style="stroke:none;fill:black;font-family:sans-serif;font-size:13;" transform="matrix(1 0 0 1 1289 1989)">design is preserved when submitting to Xcode.</text>
  <text id="template-version" style="stroke:none;fill:black;font-family:sans-serif;font-size:13;text-anchor:end;" transform="matrix(1 0 0 1 3036 1933)">Template v.2.0</text>
  <text style="stroke:none;fill:black;font-family:sans-serif;font-size:13;text-anchor:end;" transform="matrix(1 0 0 1 3036 1951)">Requires Xcode 12 or greater</text>
  <text id="descriptive-name" style="stroke:none;fill:black;font-family:sans-serif;font-size:13;text-anchor:end;" transform="matrix(1 0 0 1 3036 1969)">Generated from computermouse.fill</text>
  <text style="stroke:none;fill:black;font-family:sans-serif;font-size:13;text-anchor:end;" transform="matrix(1 0 0 1 3036 1987)">Typeset at 100.0 points</text>
  <text style="stroke:none;fill:black;font-family:sans-serif;font-size:13;" transform="matrix(1 0 0 1 263 726)">Small</text>
  <text style="stroke:none;fill:black;font-family:sans-serif;font-size:13;" transform="matrix(1 0 0 1 263 1156)">Medium</text>
  <text style="stroke:none;fill:black;font-family:sans-serif;font-size:13;" transform="matrix(1 0 0 1 263 1586)">Large</text>
 </g>
 <g id="Guides">
  <g id="H-reference" style="fill:#27AAE1;stroke:none;" transform="matrix(1 0 0 1 339 696)">
   <path d="M0.993654 0L3.63775 0L29.3281-67.1323L30.0303-67.1323L30.0303-70.459L28.1226-70.459ZM11.6885-24.4799L46.9815-24.4799L46.2315-26.7285L12.4385-26.7285ZM55.1196 0L57.7637 0L30.6382-70.459L29.4326-70.459L29.4326-67.1323Z"/>
  </g>
  <line id="Baseline-S" style="fill:none;stroke:#27AAE1;opacity:1;stroke-width:0.5;" x1="263" x2="3036" y1="696" y2="696"/>
  <line id="Capline-S" style="fill:none;stroke:#27AAE1;opacity:1;stroke-width:0.5;" x1="263" x2="3036" y1="625.541" y2="625.541"/>
  <g id="H-reference" style="fill:#27AAE1;stroke:none;" transform="matrix(1 0 0 1 339 1126)">
   <path d="M0.993654 0L3.63775 0L29.3281-67.1323L30.0303-67.1323L30.0303-70.459L28.1226-70.459ZM11.6885-24.4799L46.9815-24.4799L46.2315-26.7285L12.4385-26.7285ZM55.1196 0L57.7637 0L30.6382-70.459L29.4326-70.459L29.4326-67.1323Z"/>
  </g>
  <line id="Baseline-M" style="fill:none;stroke:#27AAE1;opacity:1;stroke-width:0.5;" x1="263" x2="3036" y1="1126" y2="1126"/>
  <line id="Capline-M" style="fill:none;stroke:#27AAE1;opacity:1;stroke-width:0.5;" x1="263" x2="3036" y1="1055.54" y2="1055.54"/>
  <g id="H-reference" style="fill:#27AAE1;stroke:none;" transform="matrix(1 0 0 1 339 1556)">
   <path d="M0.993654 0L3.63775 0L29.3281-67.1323L30.0303-67.1323L30.0303-70.459L28.1226-70.459ZM11.6885-24.4799L46.9815-24.4799L46.2315-26.7285L12.4385-26.7285ZM55.1196 0L57.7637 0L30.6382-70.459L29.4326-70.459L29.4326-67.1323Z"/>
  </g>
  <line id="Baseline-L" style="fill:none;stroke:#27AAE1;opacity:1;stroke-width:0.5;" x1="263" x2="3036" y1="1556" y2="1556"/>
  <line id="Capline-L" style="fill:none;stroke:#27AAE1;opacity:1;stroke-width:0.5;" x1="263" x2="3036" y1="1485.54" y2="1485.54"/>
  <line id="right-margin" style="fill:none;stroke:#00AEEF;stroke-width:0.5;opacity:1.0;" x1="1496.5" x2="1496.5" y1="1030.79" y2="1150.12"/>
  <line id="left-margin" style="fill:none;stroke:#00AEEF;stroke-width:0.5;opacity:1.0;" x1="1403.19" x2="1403.19" y1="1030.79" y2="1150.12"/>
 </g>
 <g id="Symbols">
  <g id="Black-L" transform="matrix(1 0 0 1 2867.82 1556)">
   <path d="M18.2209-69.2791L57.651-69.2791L57.651-110.52C33.0204-108.39 21.0476-95.7037 18.2209-69.2791ZM73.628-69.2791L112.94-69.2791C110.115-95.5805 98.2661-108.332 73.628-110.462ZM65.5811 40.5559C97.852 40.5559 115.078 21.0857 115.078-15.0371C115.078-28.7995 114.711-42.0112 114.103-53.3385L17.037-53.3385C16.4289-42.0112 16.084-28.7995 16.084-15.0371C16.084 21.0857 33.3101 40.5559 65.5811 40.5559Z"/>
  </g>
  <g id="Heavy-L" transform="matrix(1 0 0 1 2572.46 1556)">
   <path d="M18.1343-68.1832L57.2224-68.1832L57.2224-108.86C32.5782-106.99 20.9108-94.6728 18.1343-68.1832ZM71.3211-68.1832L110.314-68.1832C107.543-94.5264 96.0281-106.945 71.3211-108.815ZM64.2271 38.8451C95.6642 38.8451 112.37 19.95 112.37-15.3079C112.37-29.4332 111.971-42.8103 111.331-54.0934L17.0872-54.0934C16.4471-42.8103 16.084-29.4332 16.084-15.3079C16.084 19.95 32.79 38.8451 64.2271 38.8451Z"/>
  </g>
  <g id="Bold-L" transform="matrix(1 0 0 1 2277.43 1556)">
   <path d="M18.0267-66.786L56.6922-66.786L56.6922-106.756C32.0325-105.201 20.7417-93.3377 18.0267-66.786ZM68.4701-66.786L107.064-66.786C104.362-93.168 93.2543-105.172 68.4701-106.727ZM62.552 36.6796C92.9519 36.6796 109.02 18.4842 109.02-15.6832C109.02-30.2169 108.583-43.7792 107.904-54.9861L17.1487-54.9861C16.4701-43.7792 16.084-30.2169 16.084-15.6832C16.084 18.4842 32.1521 36.6796 62.552 36.6796Z"/>
  </g>
  <g id="Semibold-L" transform="matrix(1 0 0 1 1981.87 1556)">
   <path d="M17.9526-65.8227L56.3267-65.8227L56.3267-105.305C31.6564-103.968 20.6252-92.4172 17.9526-65.8227ZM66.5047-65.8227L104.823-65.8227C102.169-92.2315 91.342-103.95 66.5047-105.287ZM61.3971 35.1868C91.082 35.1868 106.71 17.4737 106.71-15.9419C106.71-30.7573 106.246-44.4471 105.541-55.6015L17.1911-55.6015C16.486-44.4471 16.084-30.7573 16.084-15.9419C16.084 17.4737 31.7123 35.1868 61.3971 35.1868Z"/>
  </g>
  <g id="Medium-L" transform="matrix(1 0 0 1 1686.03 1556)">
   <path d="M17.8964-65.0923L56.0496-65.0923L56.0496-104.206C31.3712-103.033 20.5368-91.7192 17.8964-65.0923ZM65.0144-65.0923L103.124-65.0923C100.506-91.5215 89.892-103.023 65.0144-104.195ZM60.5215 34.0549C89.6642 34.0549 104.959 16.7075 104.959-16.1381C104.959-31.167 104.475-44.9535 103.75-56.0681L17.2232-56.0681C16.498-44.9535 16.084-31.167 16.084-16.1381C16.084 16.7075 31.3788 34.0549 60.5215 34.0549Z"/>
  </g>
  <g id="Regular-L" transform="matrix(1 0 0 1 1390.47 1556)">
   <path d="M17.823-64.1397L55.688-64.1397L55.688-102.771C30.9991-101.814 20.4216-90.8089 17.823-64.1397ZM63.0706-64.1397L100.908-64.1397C98.3371-90.5953 88.0008-101.814 63.0706-102.771ZM59.3793 32.5784C87.8148 32.5784 102.675 15.7081 102.675-16.394C102.675-31.7014 102.164-45.6141 101.413-56.6767L17.2652-56.6767C16.5137-45.6141 16.084-31.7014 16.084-16.394C16.084 15.7081 30.9438 32.5784 59.3793 32.5784Z"/>
  </g>
  <g id="Light-L" transform="matrix(1 0 0 1 1094.9 1556)">
   <path d="M17.7467-62.9182L55.3254-62.9182L55.3254-101.015C30.6365-100.23 20.307-89.5111 17.7467-62.9182ZM61.143-62.9182L98.675-62.9182C96.1614-89.3166 86.0732-100.23 61.143-101.015ZM58.2342 30.7844C85.9254 30.7844 100.384 14.3149 100.384-16.9093C100.384-32.2358 99.8552-46.1484 99.0846-57.0202L17.3033-57.0202C16.5328-46.1484 16.084-32.2358 16.084-16.9093C16.084 14.3149 30.543 30.7844 58.2342 30.7844Z"/>
  </g>
  <g id="Thin-L" transform="matrix(1 0 0 1 799.703 1556)">
   <path d="M17.6457-61.3027L54.8458-61.3027L54.8458-98.6929C30.1569-98.1345 20.1556-87.7946 17.6457-61.3027ZM58.5936-61.3027L95.7217-61.3027C93.2838-87.6254 83.5237-98.1345 58.5936-98.6929ZM56.7197 28.4117C83.4264 28.4117 97.3554 12.4722 97.3554-17.5908C97.3554-32.9426 96.8009-46.8552 96.0051-57.4746L17.3538-57.4746C16.5581-46.8552 16.084-32.9426 16.084-17.5908C16.084 12.4722 30.013 28.4117 56.7197 28.4117Z"/>
  </g>
  <g id="Ultralight-L" transform="matrix(1 0 0 1 503.767 1556)">
   <path d="M17.594-60.4753L54.6002-60.4753L54.6002-97.5035C29.9113-97.0614 20.078-86.9155 17.594-60.4753ZM57.2878-60.4753L94.209-60.4753C91.8099-86.7591 82.2179-97.0614 57.2878-97.5035ZM55.944 27.1964C82.1465 27.1964 95.804 11.5284 95.804-17.9399C95.804-33.3046 95.2365-47.2172 94.4278-57.7073L17.3797-57.7073C16.571-47.2172 16.084-33.3046 16.084-17.9399C16.084 11.5284 29.7414 27.1964 55.944 27.1964Z"/>
  </g>
  <g id="Black-M" transform="matrix(1 0 0 1 2881.58 1126)">
   <path d="M14.1806-62.3855L44.9838-62.3855L44.9838-94.7498C25.9133-92.8992 16.4085-82.7915 14.1806-62.3855ZM58.7641-62.3855L89.4534-62.3855C87.2252-82.7185 77.7931-92.8421 58.7641-94.6927ZM51.8169 24.7119C77.4343 24.7119 91.1728 9.18749 91.1728-19.4226C91.1728-29.7757 90.9134-39.8693 90.4672-48.657L13.1613-48.657C12.7151-39.8693 12.4609-29.7757 12.4609-19.4226C12.4609 9.18749 26.1994 24.7119 51.8169 24.7119Z"/>
  </g>
  <g id="Heavy-M" transform="matrix(1 0 0 1 2586.09 1126)">
   <path d="M14.103-61.4269L44.5983-61.4269L44.5983-93.2884C25.5144-91.6764 16.2853-81.9035 14.103-61.4269ZM56.6868-61.4269L87.0926-61.4269C84.9125-81.8061 75.7831-91.6327 56.6868-93.2448ZM50.5989 23.205C75.4699 23.205 88.7369 8.20583 88.7369-19.6399C88.7369-30.3459 88.4481-40.6011 87.9723-49.3633L13.2069-49.3633C12.7311-40.6011 12.4609-30.3459 12.4609-19.6399C12.4609 8.20583 25.728 23.205 50.5989 23.205Z"/>
  </g>
  <g id="Bold-M" transform="matrix(1 0 0 1 2290.74 1126)">
   <path d="M14.0162-60.3545L44.1671-60.3545L44.1671-91.6536C25.0681-90.3084 16.1476-80.9101 14.0162-60.3545ZM54.363-60.3545L84.4518-60.3545C82.3255-80.7854 73.5347-90.2799 54.363-91.625ZM49.2365 21.5192C73.2724 21.5192 86.0121 7.10771 86.0121-19.8829C86.0121-30.9837 85.6902-41.4198 85.1815-50.1534L13.2578-50.1534C12.749-41.4198 12.4609-30.9837 12.4609-19.8829C12.4609 7.10771 25.2006 21.5192 49.2365 21.5192Z"/>
  </g>
  <g id="Semibold-M" transform="matrix(1 0 0 1 1994.97 1126)">
   <path d="M13.9563-59.6152L43.8699-59.6152L43.8699-90.5265C24.7605-89.3654 16.0526-80.2253 13.9563-59.6152ZM52.761-59.6152L82.6312-59.6152C80.542-80.0818 71.9847-89.3473 52.761-90.5084ZM48.2973 20.357C71.7575 20.357 84.1336 6.35066 84.1336-20.0504C84.1336-31.4234 83.789-41.9842 83.2575-50.6981L13.2929-50.6981C12.7614-41.9842 12.4609-31.4234 12.4609-20.0504C12.4609 6.35066 24.8371 20.357 48.2973 20.357Z"/>
  </g>
  <g id="Medium-M" transform="matrix(1 0 0 1 1698.97 1126)">
   <path d="M13.9109-59.0546L43.6445-59.0546L43.6445-89.672C24.5272-88.6504 15.9806-79.706 13.9109-59.0546ZM51.5463-59.0546L81.2507-59.0546C79.1896-79.5483 70.8094-88.6401 51.5463-89.6617ZM47.5851 19.4758C70.6088 19.4758 82.7093 5.77664 82.7093-20.1775C82.7093-31.7568 82.3474-42.4121 81.7986-51.1111L13.3196-51.1111C12.7708-42.4121 12.4609-31.7568 12.4609-20.1775C12.4609 5.77664 24.5614 19.4758 47.5851 19.4758Z"/>
  </g>
  <g id="Regular-M" transform="matrix(1 0 0 1 1403.19 1126)">
   <path d="M13.8517-58.3235L43.3505-58.3235L43.3505-88.5573C24.223-87.7177 15.8867-79.0287 13.8517-58.3235ZM49.9619-58.3235L79.4501-58.3235C77.4257-78.8524 69.2763-87.7177 49.9619-88.5573ZM46.6562 18.3265C69.1105 18.3265 80.8515 5.02792 80.8515-20.3432C80.8515-32.1916 80.4671-42.9703 79.8958-51.6498L13.3543-51.6498C12.783-42.9703 12.4609-32.1916 12.4609-20.3432C12.4609 5.02792 24.2019 18.3265 46.6562 18.3265Z"/>
  </g>
  <g id="Light-M" transform="matrix(1 0 0 1 1107.5 1126)">
   <path d="M13.7833-57.2284L43.0254-57.2284L43.0254-86.9831C23.8979-86.2975 15.784-77.8652 13.7833-57.2284ZM48.2337-57.2284L77.4481-57.2284C75.4751-77.7059 67.5481-86.2975 48.2337-86.9831ZM45.6295 16.718C67.4165 16.718 78.7981 3.77882 78.7981-20.8052C78.7981-32.6707 78.3967-43.4494 77.8082-51.9578L13.3885-51.9578C12.8001-43.4494 12.4609-32.6707 12.4609-20.8052C12.4609 3.77882 23.8425 16.718 45.6295 16.718Z"/>
  </g>
  <g id="Thin-M" transform="matrix(1 0 0 1 812.151 1126)">
   <path d="M13.6928-55.78L42.5954-55.78L42.5954-84.9011C23.4679-84.4192 15.6482-76.3263 13.6928-55.78ZM45.948-55.78L74.8003-55.78C72.8952-76.1897 65.2624-84.4192 45.948-84.9011ZM44.2717 14.5908C65.1761 14.5908 76.0825 2.12679 76.0825-21.4162C76.0825-33.3044 75.6583-44.0831 75.0473-52.3651L13.4338-52.3651C12.8228-44.0831 12.4609-33.3044 12.4609-21.4162C12.4609 2.12679 23.3673 14.5908 44.2717 14.5908Z"/>
  </g>
  <g id="Ultralight-M" transform="matrix(1 0 0 1 516.135 1126)">
   <path d="M13.6464-55.0382L42.3752-55.0382L42.3752-83.8347C23.2476-83.4571 15.5787-75.5381 13.6464-55.0382ZM44.7773-55.0382L73.4442-55.0382C71.5738-75.4131 64.0917-83.4571 44.7773-83.8347ZM43.5762 13.5012C64.0286 13.5012 74.6915 1.28062 74.6915-21.7292C74.6915-33.6289 74.2558-44.4077 73.6332-52.5738L13.457-52.5738C12.8343-44.4077 12.4609-33.6289 12.4609-21.7292C12.4609 1.28062 23.1239 13.5012 43.5762 13.5012Z"/>
  </g>
  <g id="Black-S" transform="matrix(1 0 0 1 2892.48 696)">
   <path d="M11.1328-56.7383L35.3516-56.7383L35.3516-82.2266C20.4102-80.7129 12.8906-72.7051 11.1328-56.7383ZM46.582-56.7383L70.7031-56.7383C68.9453-72.6562 61.4746-80.6641 46.582-82.1777ZM40.918 12.1094C61.1816 12.1094 72.0703-0.195312 72.0703-22.8027C72.0703-30.8105 71.875-38.6719 71.5332-45.5566L10.3027-45.5566C9.96094-38.6719 9.76562-30.8105 9.76562-22.8027C9.76562-0.195312 20.6543 12.1094 40.918 12.1094Z"/>
  </g>
  <g id="Heavy-S" transform="matrix(1 0 0 1 2596.68 696)">
   <path d="M11.0752-56.0583L35.0635-56.0583L35.0635-81.1778C20.1105-79.8486 12.7984-72.0943 11.0752-56.0583ZM45.0262-56.0583L68.9399-56.0583C67.2166-72.0224 59.9764-79.8113 45.0262-81.1405ZM40.0075 11.0261C59.718 11.0261 70.2494-0.875256 70.2494-22.9295C70.2494-31.237 70.0311-39.2366 69.6662-46.1213L10.3373-46.1213C9.97246-39.2366 9.76562-31.237 9.76562-22.9295C9.76562-0.875256 20.297 11.0261 40.0075 11.0261Z"/>
  </g>
  <g id="Bold-S" transform="matrix(1 0 0 1 2300.99 696)">
   <path d="M11.0107-55.2979L34.7412-55.2979L34.7412-80.0049C19.7754-78.8818 12.6953-71.4111 11.0107-55.2979ZM43.2861-55.2979L66.9678-55.2979C65.2832-71.3135 58.3008-78.8574 43.2861-79.9805ZM38.9893 9.81445C58.0811 9.81445 68.2129-1.63574 68.2129-23.0713C68.2129-31.7139 67.9688-39.8682 67.5781-46.7529L10.376-46.7529C9.98535-39.8682 9.76562-31.7139 9.76562-23.0713C9.76562-1.63574 19.8975 9.81445 38.9893 9.81445Z"/>
  </g>
  <g id="Semibold-S" transform="matrix(1 0 0 1 2004.98 696)">
   <path d="M10.9663-54.7735L34.519-54.7735L34.519-79.1962C19.5443-78.2153 12.6242-70.9401 10.9663-54.7735ZM42.0864-54.7735L65.6081-54.7735C63.9502-70.8247 57.1455-78.1998 42.0864-79.1807ZM38.2872 8.9791C56.9524 8.9791 66.8088-2.16006 66.8088-23.169C66.8088-32.0427 66.5469-40.3036 66.1385-47.1884L10.4026-47.1884C9.99424-40.3036 9.76562-32.0427 9.76562-23.169C9.76562-2.16006 19.622 8.9791 38.2872 8.9791Z"/>
  </g>
  <g id="Medium-S" transform="matrix(1 0 0 1 1708.8 696)">
   <path d="M10.9326-54.376L34.3506-54.376L34.3506-78.583C19.3691-77.71 12.5703-70.583 10.9326-54.376ZM41.1768-54.376L64.5771-54.376C62.9395-70.4541 56.2695-77.7012 41.1768-78.5742ZM37.7549 8.3457C56.0967 8.3457 65.7441-2.55762 65.7441-23.2432C65.7441-32.292 65.4688-40.6338 65.0469-47.5186L10.4229-47.5186C10.001-40.6338 9.76562-32.292 9.76562-23.2432C9.76562-2.55762 19.4131 8.3457 37.7549 8.3457Z"/>
  </g>
  <g id="Regular-S" transform="matrix(1 0 0 1 1412.78 696)">
   <path d="M10.8887-53.8574L34.1309-53.8574L34.1309-77.7832C19.1406-77.0508 12.5-70.1172 10.8887-53.8574ZM39.9902-53.8574L63.2324-53.8574C61.6211-69.9707 55.127-77.0508 39.9902-77.7832ZM37.0605 7.51953C54.9805 7.51953 64.3555-3.07617 64.3555-23.3398C64.3555-32.6172 64.0625-41.0645 63.623-47.9492L10.4492-47.9492C10.0098-41.0645 9.76562-32.6172 9.76562-23.3398C9.76562-3.07617 19.1406 7.51953 37.0605 7.51953Z"/>
  </g>
  <g id="Light-S" transform="matrix(1 0 0 1 1116.98 696)">
   <path d="M10.8281-52.8887L33.8433-52.8887L33.8433-76.3906C18.853-75.7944 12.4092-69.0879 10.8281-52.8887ZM38.4614-52.8887L61.4614-52.8887C59.8955-68.9566 53.5982-75.7944 38.4614-76.3906ZM36.1524 6.09669C53.4819 6.09669 62.5391-4.18114 62.5391-23.7485C62.5391-33.041 62.231-41.4883 61.7764-48.2217L10.4795-48.2217C10.0249-41.4883 9.76562-33.041 9.76562-23.7485C9.76562-4.18114 18.8228 6.09669 36.1524 6.09669Z"/>
  </g>
  <g id="Thin-S" transform="matrix(1 0 0 1 821.471 696)">
   <path d="M10.748-51.6074L33.4629-51.6074L33.4629-74.5489C18.4727-74.1328 12.2891-67.7266 10.748-51.6074ZM36.4395-51.6074L59.1192-51.6074C57.6133-67.6153 51.5762-74.1328 36.4395-74.5489ZM34.9512 4.21487C51.5 4.21487 60.1368-5.64256 60.1368-24.2891C60.1368-33.6016 59.8086-42.0488 59.334-48.582L10.5195-48.582C10.0449-42.0488 9.76562-33.6016 9.76562-24.2891C9.76562-5.64256 18.4023 4.21487 34.9512 4.21487Z"/>
  </g>
  <g id="Ultralight-S" transform="matrix(1 0 0 1 525.375 696)">
   <path d="M10.707-50.9512L33.2681-50.9512L33.2681-73.6055C18.2778-73.2818 12.2275-67.0293 10.707-50.9512ZM35.4038-50.9512L57.9195-50.9512C56.4444-66.9282 50.5406-73.2818 35.4038-73.6055ZM34.336 3.25101C50.4849 3.25101 58.9063-6.39109 58.9063-24.5659C58.9063-33.8887 58.5679-42.3359 58.0831-48.7666L10.54-48.7666C10.0552-42.3359 9.76562-33.8887 9.76562-24.5659C9.76562-6.39109 18.187 3.25101 34.336 3.25101Z"/>
  </g>
 </g>
</svg>
